<svg xmlns="http://www.w3.org/2000/svg" height="96" width="128" viewBox="0 0 128 96"><desc>Loudspeaker</desc><defs><style>.basket{fill:#191919;fill-opacity:.9}.wave_outer{fill:#7f7f7f;fill-opacity:.4}.wave_middle{fill:#4c4c4c;fill-opacity:.6}.wave_inner{fill:#191919;fill-opacity:.7}.magnet{fill:url(#id0)}.diaphragm{fill:url(#id1)}.surround{fill:url(#id2)}.in{fill:url(#id3)}.out{fill:url(#id4)}</style><linearGradient id="id0" y2="22" gradientUnits="userSpaceOnUse" x2="21.784" y1="74.003" x1="21.784"><stop stop-color="#fff" offset="0"/><stop stop-color="#aaa9a9" offset="1"/></linearGradient><linearGradient id="id1" y2="48" gradientUnits="userSpaceOnUse" x2="14" y1="48" x1="60"><stop stop-color="#6b6b6b" offset="0"/><stop stop-color="#909090" offset=".4"/><stop stop-color="#fff" offset="1"/></linearGradient><linearGradient id="id2" y2="48" gradientUnits="userSpaceOnUse" x2="12" y1="48" x1="62"><stop stop-color="#dededd" offset="0"/><stop stop-color="#c4c4c3" offset=".322"/><stop stop-color="#7a7a7a" offset="1"/></linearGradient><linearGradient id="id3" y2="46.715" gradientUnits="userSpaceOnUse" x2="32.774" y1="46.715" x1="45.367"><stop stop-color="#fff" offset="0"/><stop stop-color="#d4d4d4" offset=".322"/><stop stop-color="#c2c1c1" offset="1"/></linearGradient><linearGradient id="id4" y2="48.001" gradientUnits="userSpaceOnUse" x2="24.023" y1="48.001" x1="47.978"><stop stop-color="#c3c3c3" offset="0"/><stop stop-color="#555" offset="1"/></linearGradient></defs><g id="speaker_icon"><path id="bottom_plate" d="M21.345 20C9.576 20 0 32.561 0 47.999 0 63.439 9.576 76 21.345 76c11.764 0 21.336-12.56 21.336-28.001C42.681 32.562 33.109 20 21.345 20z" class="basket"/><path id="magnet" d="M21.785 74.003C10.857 74.003 2 62.364 2 48c0-14.362 8.856-26 19.785-26 10.924 0 19.782 11.638 19.782 26s-8.858 26.003-19.782 26.003z" class="magnet"/><path id="basket" d="M37 0C22.113 0 10.002 21.088 10.002 47.007 10.002 72.929 22.114 96 37 96c14.888.001 27-23.07 27-48.993C64 21.088 51.889 0 37 0z" class="basket"/><path id="surround" d="M37 91.999c-13.808 0-25.001-19.702-25.001-44.001C11.999 23.7 23.192 4 37 4c13.807 0 25 19.701 25 43.998 0 24.299-11.192 44.001-25 44.001z" class="surround"/><path id="diaphragm" d="M37 90c-12.701 0-23-18.804-23-42C14 24.803 24.299 6.001 37 6.001c12.703 0 23 18.804 23 41.999 0 23.197-10.297 42-23 42z" class="diaphragm"/><g id="dust_cup"><ellipse id="in" rx="6.297" ry="10.554" class="in" cy="46.715" cx="39.07"/><path id="out" d="M36 68.063c-6.615 0-11.978-8.983-11.978-20.063 0-11.079 5.362-20.06 11.978-20.06 6.614 0 11.978 8.981 11.978 20.06 0 11.08-5.364 20.063-11.978 20.063z" class="out"/></g><path id="wave_inner" d="M77.044 16.433c14.542 15.731 14.675 43.886 0 62.715-3.805 1.964-10.434.22-8.786-2.1 11.963-16.54 11.822-44.668 0-58.27-1.63-2.391 6.364-3.44 8.786-2.346z" class="wave_inner"/><path id="wave_middle" d="M97.044 8.542c14.542 19.666 14.675 54.865 0 78.405-3.804 2.455-10.433.275-8.785-2.625 11.962-20.68 11.82-55.843 0-72.847-1.631-2.99 6.363-4.3 8.785-2.933z" class="wave_middle"/><path id="wave_outer" d="M117.04.66c14.542 23.595 14.675 65.823 0 94.063-3.805 2.946-10.434.33-8.786-3.15 11.963-24.808 11.822-66.994 0-87.393-1.63-3.586 6.364-5.16 8.786-3.519z" class="wave_outer"/></g></svg>